<mxfile host="app.diagrams.net" modified="2024-06-06T10:56:52.156Z" agent="Mozilla/5.0 (Windows NT 10.0; Win64; x64) AppleWebKit/537.36 (KHTML, like Gecko) Chrome/124.0.0.0 Whale/3.26.244.21 Safari/537.36" etag="dBOT5nm01INR9hNNqWmT" version="24.4.14" type="github">
  <diagram id="C5RBs43oDa-KdzZeNtuy" name="Page-1">
    <mxGraphModel dx="1299" dy="4013" grid="1" gridSize="10" guides="1" tooltips="1" connect="1" arrows="1" fold="1" page="1" pageScale="1" pageWidth="4681" pageHeight="3300" math="0" shadow="0">
      <root>
        <mxCell id="WIyWlLk6GJQsqaUBKTNV-0" />
        <mxCell id="WIyWlLk6GJQsqaUBKTNV-1" parent="WIyWlLk6GJQsqaUBKTNV-0" />
        <mxCell id="zkfFHV4jXpPFQw0GAbJ--0" value="member" style="swimlane;fontStyle=2;align=center;verticalAlign=top;childLayout=stackLayout;horizontal=1;startSize=26;horizontalStack=0;resizeParent=1;resizeLast=0;collapsible=1;marginBottom=0;rounded=0;shadow=0;strokeWidth=1;" parent="WIyWlLk6GJQsqaUBKTNV-1" vertex="1">
          <mxGeometry x="490" width="160" height="266" as="geometry">
            <mxRectangle x="220" y="60" width="160" height="26" as="alternateBounds" />
          </mxGeometry>
        </mxCell>
        <mxCell id="XIsmlEJmv4DeTIeKc8W9-85" value="id                number" style="shape=partialRectangle;fillColor=none;align=left;verticalAlign=middle;strokeColor=none;spacingLeft=34;rotatable=0;points=[[0,0.5],[1,0.5]];portConstraint=eastwest;dropTarget=0;" vertex="1" parent="zkfFHV4jXpPFQw0GAbJ--0">
          <mxGeometry y="26" width="160" height="30" as="geometry" />
        </mxCell>
        <mxCell id="XIsmlEJmv4DeTIeKc8W9-86" value="PK" style="shape=partialRectangle;top=0;left=0;bottom=0;fillColor=none;stokeWidth=1;dashed=1;align=left;verticalAlign=middle;spacingLeft=4;spacingRight=4;overflow=hidden;rotatable=0;points=[];portConstraint=eastwest;part=1;" vertex="1" connectable="0" parent="XIsmlEJmv4DeTIeKc8W9-85">
          <mxGeometry width="30" height="30" as="geometry" />
        </mxCell>
        <mxCell id="XIsmlEJmv4DeTIeKc8W9-89" value="userid         varchar2" style="shape=partialRectangle;fillColor=none;align=left;verticalAlign=middle;strokeColor=none;spacingLeft=34;rotatable=0;points=[[0,0.5],[1,0.5]];portConstraint=eastwest;dropTarget=0;" vertex="1" parent="zkfFHV4jXpPFQw0GAbJ--0">
          <mxGeometry y="56" width="160" height="30" as="geometry" />
        </mxCell>
        <mxCell id="XIsmlEJmv4DeTIeKc8W9-90" value="UK" style="shape=partialRectangle;top=0;left=0;bottom=0;fillColor=none;stokeWidth=1;dashed=1;align=left;verticalAlign=middle;spacingLeft=4;spacingRight=4;overflow=hidden;rotatable=0;points=[];portConstraint=eastwest;part=1;" vertex="1" connectable="0" parent="XIsmlEJmv4DeTIeKc8W9-89">
          <mxGeometry width="30" height="30" as="geometry" />
        </mxCell>
        <mxCell id="XIsmlEJmv4DeTIeKc8W9-91" value="userpw         varchar2" style="shape=partialRectangle;fillColor=none;align=left;verticalAlign=middle;strokeColor=none;spacingLeft=34;rotatable=0;points=[[0,0.5],[1,0.5]];portConstraint=eastwest;dropTarget=0;" vertex="1" parent="zkfFHV4jXpPFQw0GAbJ--0">
          <mxGeometry y="86" width="160" height="30" as="geometry" />
        </mxCell>
        <mxCell id="XIsmlEJmv4DeTIeKc8W9-92" value="" style="shape=partialRectangle;top=0;left=0;bottom=0;fillColor=none;stokeWidth=1;dashed=1;align=left;verticalAlign=middle;spacingLeft=4;spacingRight=4;overflow=hidden;rotatable=0;points=[];portConstraint=eastwest;part=1;" vertex="1" connectable="0" parent="XIsmlEJmv4DeTIeKc8W9-91">
          <mxGeometry width="30" height="30" as="geometry" />
        </mxCell>
        <mxCell id="XIsmlEJmv4DeTIeKc8W9-93" value="nick         varchar2" style="shape=partialRectangle;fillColor=none;align=left;verticalAlign=middle;strokeColor=none;spacingLeft=34;rotatable=0;points=[[0,0.5],[1,0.5]];portConstraint=eastwest;dropTarget=0;" vertex="1" parent="zkfFHV4jXpPFQw0GAbJ--0">
          <mxGeometry y="116" width="160" height="30" as="geometry" />
        </mxCell>
        <mxCell id="XIsmlEJmv4DeTIeKc8W9-94" value="UK" style="shape=partialRectangle;top=0;left=0;bottom=0;fillColor=none;stokeWidth=1;dashed=1;align=left;verticalAlign=middle;spacingLeft=4;spacingRight=4;overflow=hidden;rotatable=0;points=[];portConstraint=eastwest;part=1;" vertex="1" connectable="0" parent="XIsmlEJmv4DeTIeKc8W9-93">
          <mxGeometry width="30" height="30" as="geometry" />
        </mxCell>
        <mxCell id="XIsmlEJmv4DeTIeKc8W9-104" value="email         varchar2" style="shape=partialRectangle;fillColor=none;align=left;verticalAlign=middle;strokeColor=none;spacingLeft=34;rotatable=0;points=[[0,0.5],[1,0.5]];portConstraint=eastwest;dropTarget=0;" vertex="1" parent="zkfFHV4jXpPFQw0GAbJ--0">
          <mxGeometry y="146" width="160" height="30" as="geometry" />
        </mxCell>
        <mxCell id="XIsmlEJmv4DeTIeKc8W9-105" value="UK" style="shape=partialRectangle;top=0;left=0;bottom=0;fillColor=none;stokeWidth=1;dashed=1;align=left;verticalAlign=middle;spacingLeft=4;spacingRight=4;overflow=hidden;rotatable=0;points=[];portConstraint=eastwest;part=1;" vertex="1" connectable="0" parent="XIsmlEJmv4DeTIeKc8W9-104">
          <mxGeometry width="30" height="30" as="geometry" />
        </mxCell>
        <mxCell id="XIsmlEJmv4DeTIeKc8W9-109" value="phone         varchar2" style="shape=partialRectangle;fillColor=none;align=left;verticalAlign=middle;strokeColor=none;spacingLeft=34;rotatable=0;points=[[0,0.5],[1,0.5]];portConstraint=eastwest;dropTarget=0;" vertex="1" parent="zkfFHV4jXpPFQw0GAbJ--0">
          <mxGeometry y="176" width="160" height="30" as="geometry" />
        </mxCell>
        <mxCell id="XIsmlEJmv4DeTIeKc8W9-110" value="UK" style="shape=partialRectangle;top=0;left=0;bottom=0;fillColor=none;stokeWidth=1;dashed=1;align=left;verticalAlign=middle;spacingLeft=4;spacingRight=4;overflow=hidden;rotatable=0;points=[];portConstraint=eastwest;part=1;" vertex="1" connectable="0" parent="XIsmlEJmv4DeTIeKc8W9-109">
          <mxGeometry width="30" height="30" as="geometry" />
        </mxCell>
        <mxCell id="XIsmlEJmv4DeTIeKc8W9-113" value="profile         number" style="shape=partialRectangle;fillColor=none;align=left;verticalAlign=middle;strokeColor=none;spacingLeft=34;rotatable=0;points=[[0,0.5],[1,0.5]];portConstraint=eastwest;dropTarget=0;" vertex="1" parent="zkfFHV4jXpPFQw0GAbJ--0">
          <mxGeometry y="206" width="160" height="30" as="geometry" />
        </mxCell>
        <mxCell id="XIsmlEJmv4DeTIeKc8W9-114" value="" style="shape=partialRectangle;top=0;left=0;bottom=0;fillColor=none;stokeWidth=1;dashed=1;align=left;verticalAlign=middle;spacingLeft=4;spacingRight=4;overflow=hidden;rotatable=0;points=[];portConstraint=eastwest;part=1;" vertex="1" connectable="0" parent="XIsmlEJmv4DeTIeKc8W9-113">
          <mxGeometry width="30" height="30" as="geometry" />
        </mxCell>
        <mxCell id="XIsmlEJmv4DeTIeKc8W9-106" value="ad         number" style="shape=partialRectangle;fillColor=none;align=left;verticalAlign=middle;strokeColor=none;spacingLeft=34;rotatable=0;points=[[0,0.5],[1,0.5]];portConstraint=eastwest;dropTarget=0;" vertex="1" parent="zkfFHV4jXpPFQw0GAbJ--0">
          <mxGeometry y="236" width="160" height="30" as="geometry" />
        </mxCell>
        <mxCell id="XIsmlEJmv4DeTIeKc8W9-107" value="" style="shape=partialRectangle;top=0;left=0;bottom=0;fillColor=none;stokeWidth=1;dashed=1;align=left;verticalAlign=middle;spacingLeft=4;spacingRight=4;overflow=hidden;rotatable=0;points=[];portConstraint=eastwest;part=1;" vertex="1" connectable="0" parent="XIsmlEJmv4DeTIeKc8W9-106">
          <mxGeometry width="30" height="30" as="geometry" />
        </mxCell>
        <mxCell id="XIsmlEJmv4DeTIeKc8W9-115" value="item_type" style="swimlane;fontStyle=2;align=center;verticalAlign=top;childLayout=stackLayout;horizontal=1;startSize=26;horizontalStack=0;resizeParent=1;resizeLast=0;collapsible=1;marginBottom=0;rounded=0;shadow=0;strokeWidth=1;" vertex="1" parent="WIyWlLk6GJQsqaUBKTNV-1">
          <mxGeometry x="960" y="290" width="160" height="90" as="geometry">
            <mxRectangle x="220" y="60" width="160" height="26" as="alternateBounds" />
          </mxGeometry>
        </mxCell>
        <mxCell id="XIsmlEJmv4DeTIeKc8W9-116" value="id         number" style="shape=partialRectangle;fillColor=none;align=left;verticalAlign=middle;strokeColor=none;spacingLeft=34;rotatable=0;points=[[0,0.5],[1,0.5]];portConstraint=eastwest;dropTarget=0;" vertex="1" parent="XIsmlEJmv4DeTIeKc8W9-115">
          <mxGeometry y="26" width="160" height="30" as="geometry" />
        </mxCell>
        <mxCell id="XIsmlEJmv4DeTIeKc8W9-117" value="PK" style="shape=partialRectangle;top=0;left=0;bottom=0;fillColor=none;stokeWidth=1;dashed=1;align=left;verticalAlign=middle;spacingLeft=4;spacingRight=4;overflow=hidden;rotatable=0;points=[];portConstraint=eastwest;part=1;" vertex="1" connectable="0" parent="XIsmlEJmv4DeTIeKc8W9-116">
          <mxGeometry width="30" height="30" as="geometry" />
        </mxCell>
        <mxCell id="XIsmlEJmv4DeTIeKc8W9-122" value="name         nvarchar2" style="shape=partialRectangle;fillColor=none;align=left;verticalAlign=middle;strokeColor=none;spacingLeft=34;rotatable=0;points=[[0,0.5],[1,0.5]];portConstraint=eastwest;dropTarget=0;" vertex="1" parent="XIsmlEJmv4DeTIeKc8W9-115">
          <mxGeometry y="56" width="160" height="30" as="geometry" />
        </mxCell>
        <mxCell id="XIsmlEJmv4DeTIeKc8W9-123" value="" style="shape=partialRectangle;top=0;left=0;bottom=0;fillColor=none;stokeWidth=1;dashed=1;align=left;verticalAlign=middle;spacingLeft=4;spacingRight=4;overflow=hidden;rotatable=0;points=[];portConstraint=eastwest;part=1;" vertex="1" connectable="0" parent="XIsmlEJmv4DeTIeKc8W9-122">
          <mxGeometry width="30" height="30" as="geometry" />
        </mxCell>
        <mxCell id="XIsmlEJmv4DeTIeKc8W9-134" value="item" style="swimlane;fontStyle=2;align=center;verticalAlign=top;childLayout=stackLayout;horizontal=1;startSize=26;horizontalStack=0;resizeParent=1;resizeLast=0;collapsible=1;marginBottom=0;rounded=0;shadow=0;strokeWidth=1;" vertex="1" parent="WIyWlLk6GJQsqaUBKTNV-1">
          <mxGeometry x="990" y="-30" width="160" height="206" as="geometry">
            <mxRectangle x="220" y="60" width="160" height="26" as="alternateBounds" />
          </mxGeometry>
        </mxCell>
        <mxCell id="XIsmlEJmv4DeTIeKc8W9-135" value="id         number" style="shape=partialRectangle;fillColor=none;align=left;verticalAlign=middle;strokeColor=none;spacingLeft=34;rotatable=0;points=[[0,0.5],[1,0.5]];portConstraint=eastwest;dropTarget=0;" vertex="1" parent="XIsmlEJmv4DeTIeKc8W9-134">
          <mxGeometry y="26" width="160" height="30" as="geometry" />
        </mxCell>
        <mxCell id="XIsmlEJmv4DeTIeKc8W9-136" value="PK" style="shape=partialRectangle;top=0;left=0;bottom=0;fillColor=none;stokeWidth=1;dashed=1;align=left;verticalAlign=middle;spacingLeft=4;spacingRight=4;overflow=hidden;rotatable=0;points=[];portConstraint=eastwest;part=1;" vertex="1" connectable="0" parent="XIsmlEJmv4DeTIeKc8W9-135">
          <mxGeometry width="30" height="30" as="geometry" />
        </mxCell>
        <mxCell id="XIsmlEJmv4DeTIeKc8W9-137" value="type         number" style="shape=partialRectangle;fillColor=none;align=left;verticalAlign=middle;strokeColor=none;spacingLeft=34;rotatable=0;points=[[0,0.5],[1,0.5]];portConstraint=eastwest;dropTarget=0;" vertex="1" parent="XIsmlEJmv4DeTIeKc8W9-134">
          <mxGeometry y="56" width="160" height="30" as="geometry" />
        </mxCell>
        <mxCell id="XIsmlEJmv4DeTIeKc8W9-138" value="FK" style="shape=partialRectangle;top=0;left=0;bottom=0;fillColor=none;stokeWidth=1;dashed=1;align=left;verticalAlign=middle;spacingLeft=4;spacingRight=4;overflow=hidden;rotatable=0;points=[];portConstraint=eastwest;part=1;" vertex="1" connectable="0" parent="XIsmlEJmv4DeTIeKc8W9-137">
          <mxGeometry width="30" height="30" as="geometry" />
        </mxCell>
        <mxCell id="XIsmlEJmv4DeTIeKc8W9-143" value="name      varchar" style="shape=partialRectangle;fillColor=none;align=left;verticalAlign=middle;strokeColor=none;spacingLeft=34;rotatable=0;points=[[0,0.5],[1,0.5]];portConstraint=eastwest;dropTarget=0;" vertex="1" parent="XIsmlEJmv4DeTIeKc8W9-134">
          <mxGeometry y="86" width="160" height="30" as="geometry" />
        </mxCell>
        <mxCell id="XIsmlEJmv4DeTIeKc8W9-144" value="" style="shape=partialRectangle;top=0;left=0;bottom=0;fillColor=none;stokeWidth=1;dashed=1;align=left;verticalAlign=middle;spacingLeft=4;spacingRight=4;overflow=hidden;rotatable=0;points=[];portConstraint=eastwest;part=1;" vertex="1" connectable="0" parent="XIsmlEJmv4DeTIeKc8W9-143">
          <mxGeometry width="30" height="30" as="geometry" />
        </mxCell>
        <mxCell id="XIsmlEJmv4DeTIeKc8W9-145" value="price        number" style="shape=partialRectangle;fillColor=none;align=left;verticalAlign=middle;strokeColor=none;spacingLeft=34;rotatable=0;points=[[0,0.5],[1,0.5]];portConstraint=eastwest;dropTarget=0;" vertex="1" parent="XIsmlEJmv4DeTIeKc8W9-134">
          <mxGeometry y="116" width="160" height="30" as="geometry" />
        </mxCell>
        <mxCell id="XIsmlEJmv4DeTIeKc8W9-146" value="" style="shape=partialRectangle;top=0;left=0;bottom=0;fillColor=none;stokeWidth=1;dashed=1;align=left;verticalAlign=middle;spacingLeft=4;spacingRight=4;overflow=hidden;rotatable=0;points=[];portConstraint=eastwest;part=1;" vertex="1" connectable="0" parent="XIsmlEJmv4DeTIeKc8W9-145">
          <mxGeometry width="30" height="30" as="geometry" />
        </mxCell>
        <mxCell id="XIsmlEJmv4DeTIeKc8W9-147" value="picture        varchar" style="shape=partialRectangle;fillColor=none;align=left;verticalAlign=middle;strokeColor=none;spacingLeft=34;rotatable=0;points=[[0,0.5],[1,0.5]];portConstraint=eastwest;dropTarget=0;" vertex="1" parent="XIsmlEJmv4DeTIeKc8W9-134">
          <mxGeometry y="146" width="160" height="30" as="geometry" />
        </mxCell>
        <mxCell id="XIsmlEJmv4DeTIeKc8W9-148" value="" style="shape=partialRectangle;top=0;left=0;bottom=0;fillColor=none;stokeWidth=1;dashed=1;align=left;verticalAlign=middle;spacingLeft=4;spacingRight=4;overflow=hidden;rotatable=0;points=[];portConstraint=eastwest;part=1;" vertex="1" connectable="0" parent="XIsmlEJmv4DeTIeKc8W9-147">
          <mxGeometry width="30" height="30" as="geometry" />
        </mxCell>
        <mxCell id="XIsmlEJmv4DeTIeKc8W9-141" value="detail           varchar2" style="shape=partialRectangle;fillColor=none;align=left;verticalAlign=middle;strokeColor=none;spacingLeft=34;rotatable=0;points=[[0,0.5],[1,0.5]];portConstraint=eastwest;dropTarget=0;" vertex="1" parent="XIsmlEJmv4DeTIeKc8W9-134">
          <mxGeometry y="176" width="160" height="30" as="geometry" />
        </mxCell>
        <mxCell id="XIsmlEJmv4DeTIeKc8W9-142" value="" style="shape=partialRectangle;top=0;left=0;bottom=0;fillColor=none;stokeWidth=1;dashed=1;align=left;verticalAlign=middle;spacingLeft=4;spacingRight=4;overflow=hidden;rotatable=0;points=[];portConstraint=eastwest;part=1;" vertex="1" connectable="0" parent="XIsmlEJmv4DeTIeKc8W9-141">
          <mxGeometry width="30" height="30" as="geometry" />
        </mxCell>
        <mxCell id="XIsmlEJmv4DeTIeKc8W9-140" value="" style="edgeStyle=entityRelationEdgeStyle;fontSize=12;html=1;endArrow=ERzeroToMany;endFill=1;rounded=0;exitX=1;exitY=0.5;exitDx=0;exitDy=0;" edge="1" parent="WIyWlLk6GJQsqaUBKTNV-1" source="XIsmlEJmv4DeTIeKc8W9-116" target="XIsmlEJmv4DeTIeKc8W9-137">
          <mxGeometry width="100" height="100" relative="1" as="geometry">
            <mxPoint x="990" y="151.19" as="sourcePoint" />
            <mxPoint x="988.4000000000001" y="294.8100000000001" as="targetPoint" />
            <Array as="points">
              <mxPoint x="890" y="259.19" />
              <mxPoint x="1060" y="190.19" />
              <mxPoint x="1040" y="180.19" />
              <mxPoint x="1090" y="250.19" />
              <mxPoint x="1070" y="260.19" />
              <mxPoint x="1040" y="170.19" />
              <mxPoint x="860" y="269.19" />
            </Array>
          </mxGeometry>
        </mxCell>
        <mxCell id="XIsmlEJmv4DeTIeKc8W9-149" value="item_review" style="swimlane;fontStyle=2;align=center;verticalAlign=top;childLayout=stackLayout;horizontal=1;startSize=26;horizontalStack=0;resizeParent=1;resizeLast=0;collapsible=1;marginBottom=0;rounded=0;shadow=0;strokeWidth=1;" vertex="1" parent="WIyWlLk6GJQsqaUBKTNV-1">
          <mxGeometry x="720" y="-60" width="160" height="206" as="geometry">
            <mxRectangle x="220" y="60" width="160" height="26" as="alternateBounds" />
          </mxGeometry>
        </mxCell>
        <mxCell id="XIsmlEJmv4DeTIeKc8W9-150" value="id                 number" style="shape=partialRectangle;fillColor=none;align=left;verticalAlign=middle;strokeColor=none;spacingLeft=34;rotatable=0;points=[[0,0.5],[1,0.5]];portConstraint=eastwest;dropTarget=0;" vertex="1" parent="XIsmlEJmv4DeTIeKc8W9-149">
          <mxGeometry y="26" width="160" height="30" as="geometry" />
        </mxCell>
        <mxCell id="XIsmlEJmv4DeTIeKc8W9-151" value="PK" style="shape=partialRectangle;top=0;left=0;bottom=0;fillColor=none;stokeWidth=1;dashed=1;align=left;verticalAlign=middle;spacingLeft=4;spacingRight=4;overflow=hidden;rotatable=0;points=[];portConstraint=eastwest;part=1;" vertex="1" connectable="0" parent="XIsmlEJmv4DeTIeKc8W9-150">
          <mxGeometry width="30" height="30" as="geometry" />
        </mxCell>
        <mxCell id="XIsmlEJmv4DeTIeKc8W9-152" value="item_id         number" style="shape=partialRectangle;fillColor=none;align=left;verticalAlign=middle;strokeColor=none;spacingLeft=34;rotatable=0;points=[[0,0.5],[1,0.5]];portConstraint=eastwest;dropTarget=0;" vertex="1" parent="XIsmlEJmv4DeTIeKc8W9-149">
          <mxGeometry y="56" width="160" height="30" as="geometry" />
        </mxCell>
        <mxCell id="XIsmlEJmv4DeTIeKc8W9-153" value="FK" style="shape=partialRectangle;top=0;left=0;bottom=0;fillColor=none;stokeWidth=1;dashed=1;align=left;verticalAlign=middle;spacingLeft=4;spacingRight=4;overflow=hidden;rotatable=0;points=[];portConstraint=eastwest;part=1;" vertex="1" connectable="0" parent="XIsmlEJmv4DeTIeKc8W9-152">
          <mxGeometry width="30" height="30" as="geometry" />
        </mxCell>
        <mxCell id="XIsmlEJmv4DeTIeKc8W9-154" value="member_id     number" style="shape=partialRectangle;fillColor=none;align=left;verticalAlign=middle;strokeColor=none;spacingLeft=34;rotatable=0;points=[[0,0.5],[1,0.5]];portConstraint=eastwest;dropTarget=0;" vertex="1" parent="XIsmlEJmv4DeTIeKc8W9-149">
          <mxGeometry y="86" width="160" height="30" as="geometry" />
        </mxCell>
        <mxCell id="XIsmlEJmv4DeTIeKc8W9-155" value="FK" style="shape=partialRectangle;top=0;left=0;bottom=0;fillColor=none;stokeWidth=1;dashed=1;align=left;verticalAlign=middle;spacingLeft=4;spacingRight=4;overflow=hidden;rotatable=0;points=[];portConstraint=eastwest;part=1;" vertex="1" connectable="0" parent="XIsmlEJmv4DeTIeKc8W9-154">
          <mxGeometry width="30" height="30" as="geometry" />
        </mxCell>
        <mxCell id="XIsmlEJmv4DeTIeKc8W9-156" value="contents        varchar" style="shape=partialRectangle;fillColor=none;align=left;verticalAlign=middle;strokeColor=none;spacingLeft=34;rotatable=0;points=[[0,0.5],[1,0.5]];portConstraint=eastwest;dropTarget=0;" vertex="1" parent="XIsmlEJmv4DeTIeKc8W9-149">
          <mxGeometry y="116" width="160" height="30" as="geometry" />
        </mxCell>
        <mxCell id="XIsmlEJmv4DeTIeKc8W9-157" value="" style="shape=partialRectangle;top=0;left=0;bottom=0;fillColor=none;stokeWidth=1;dashed=1;align=left;verticalAlign=middle;spacingLeft=4;spacingRight=4;overflow=hidden;rotatable=0;points=[];portConstraint=eastwest;part=1;" vertex="1" connectable="0" parent="XIsmlEJmv4DeTIeKc8W9-156">
          <mxGeometry width="30" height="30" as="geometry" />
        </mxCell>
        <mxCell id="XIsmlEJmv4DeTIeKc8W9-158" value="picture        varchar" style="shape=partialRectangle;fillColor=none;align=left;verticalAlign=middle;strokeColor=none;spacingLeft=34;rotatable=0;points=[[0,0.5],[1,0.5]];portConstraint=eastwest;dropTarget=0;" vertex="1" parent="XIsmlEJmv4DeTIeKc8W9-149">
          <mxGeometry y="146" width="160" height="30" as="geometry" />
        </mxCell>
        <mxCell id="XIsmlEJmv4DeTIeKc8W9-159" value="" style="shape=partialRectangle;top=0;left=0;bottom=0;fillColor=none;stokeWidth=1;dashed=1;align=left;verticalAlign=middle;spacingLeft=4;spacingRight=4;overflow=hidden;rotatable=0;points=[];portConstraint=eastwest;part=1;" vertex="1" connectable="0" parent="XIsmlEJmv4DeTIeKc8W9-158">
          <mxGeometry width="30" height="30" as="geometry" />
        </mxCell>
        <mxCell id="XIsmlEJmv4DeTIeKc8W9-160" value="rating        number" style="shape=partialRectangle;fillColor=none;align=left;verticalAlign=middle;strokeColor=none;spacingLeft=34;rotatable=0;points=[[0,0.5],[1,0.5]];portConstraint=eastwest;dropTarget=0;" vertex="1" parent="XIsmlEJmv4DeTIeKc8W9-149">
          <mxGeometry y="176" width="160" height="30" as="geometry" />
        </mxCell>
        <mxCell id="XIsmlEJmv4DeTIeKc8W9-161" value="" style="shape=partialRectangle;top=0;left=0;bottom=0;fillColor=none;stokeWidth=1;dashed=1;align=left;verticalAlign=middle;spacingLeft=4;spacingRight=4;overflow=hidden;rotatable=0;points=[];portConstraint=eastwest;part=1;" vertex="1" connectable="0" parent="XIsmlEJmv4DeTIeKc8W9-160">
          <mxGeometry width="30" height="30" as="geometry" />
        </mxCell>
        <mxCell id="XIsmlEJmv4DeTIeKc8W9-165" value="" style="edgeStyle=entityRelationEdgeStyle;fontSize=12;html=1;endArrow=ERzeroToMany;endFill=1;rounded=0;exitX=0;exitY=0.5;exitDx=0;exitDy=0;entryX=1;entryY=0.5;entryDx=0;entryDy=0;" edge="1" parent="WIyWlLk6GJQsqaUBKTNV-1" source="XIsmlEJmv4DeTIeKc8W9-135" target="XIsmlEJmv4DeTIeKc8W9-152">
          <mxGeometry width="100" height="100" relative="1" as="geometry">
            <mxPoint x="960" y="286" as="sourcePoint" />
            <mxPoint x="1060" y="186" as="targetPoint" />
            <Array as="points">
              <mxPoint x="1080" y="130" />
            </Array>
          </mxGeometry>
        </mxCell>
        <mxCell id="XIsmlEJmv4DeTIeKc8W9-166" value="" style="edgeStyle=entityRelationEdgeStyle;fontSize=12;html=1;endArrow=ERzeroToMany;endFill=1;rounded=0;exitX=1;exitY=0.5;exitDx=0;exitDy=0;entryX=0;entryY=0.5;entryDx=0;entryDy=0;" edge="1" parent="WIyWlLk6GJQsqaUBKTNV-1" source="XIsmlEJmv4DeTIeKc8W9-85" target="XIsmlEJmv4DeTIeKc8W9-154">
          <mxGeometry width="100" height="100" relative="1" as="geometry">
            <mxPoint x="890" y="380" as="sourcePoint" />
            <mxPoint x="990" y="280" as="targetPoint" />
          </mxGeometry>
        </mxCell>
        <mxCell id="XIsmlEJmv4DeTIeKc8W9-167" value="orders" style="swimlane;fontStyle=2;align=center;verticalAlign=top;childLayout=stackLayout;horizontal=1;startSize=26;horizontalStack=0;resizeParent=1;resizeLast=0;collapsible=1;marginBottom=0;rounded=0;shadow=0;strokeWidth=1;" vertex="1" parent="WIyWlLk6GJQsqaUBKTNV-1">
          <mxGeometry x="140" y="-30" width="160" height="180" as="geometry">
            <mxRectangle x="220" y="60" width="160" height="26" as="alternateBounds" />
          </mxGeometry>
        </mxCell>
        <mxCell id="XIsmlEJmv4DeTIeKc8W9-168" value="id                 number" style="shape=partialRectangle;fillColor=none;align=left;verticalAlign=middle;strokeColor=none;spacingLeft=34;rotatable=0;points=[[0,0.5],[1,0.5]];portConstraint=eastwest;dropTarget=0;" vertex="1" parent="XIsmlEJmv4DeTIeKc8W9-167">
          <mxGeometry y="26" width="160" height="30" as="geometry" />
        </mxCell>
        <mxCell id="XIsmlEJmv4DeTIeKc8W9-169" value="PK" style="shape=partialRectangle;top=0;left=0;bottom=0;fillColor=none;stokeWidth=1;dashed=1;align=left;verticalAlign=middle;spacingLeft=4;spacingRight=4;overflow=hidden;rotatable=0;points=[];portConstraint=eastwest;part=1;" vertex="1" connectable="0" parent="XIsmlEJmv4DeTIeKc8W9-168">
          <mxGeometry width="30" height="30" as="geometry" />
        </mxCell>
        <mxCell id="XIsmlEJmv4DeTIeKc8W9-170" value="member_id     number" style="shape=partialRectangle;fillColor=none;align=left;verticalAlign=middle;strokeColor=none;spacingLeft=34;rotatable=0;points=[[0,0.5],[1,0.5]];portConstraint=eastwest;dropTarget=0;" vertex="1" parent="XIsmlEJmv4DeTIeKc8W9-167">
          <mxGeometry y="56" width="160" height="30" as="geometry" />
        </mxCell>
        <mxCell id="XIsmlEJmv4DeTIeKc8W9-171" value="FK" style="shape=partialRectangle;top=0;left=0;bottom=0;fillColor=none;stokeWidth=1;dashed=1;align=left;verticalAlign=middle;spacingLeft=4;spacingRight=4;overflow=hidden;rotatable=0;points=[];portConstraint=eastwest;part=1;" vertex="1" connectable="0" parent="XIsmlEJmv4DeTIeKc8W9-170">
          <mxGeometry width="30" height="30" as="geometry" />
        </mxCell>
        <mxCell id="XIsmlEJmv4DeTIeKc8W9-172" value="delivery_id     number" style="shape=partialRectangle;fillColor=none;align=left;verticalAlign=middle;strokeColor=none;spacingLeft=34;rotatable=0;points=[[0,0.5],[1,0.5]];portConstraint=eastwest;dropTarget=0;" vertex="1" parent="XIsmlEJmv4DeTIeKc8W9-167">
          <mxGeometry y="86" width="160" height="30" as="geometry" />
        </mxCell>
        <mxCell id="XIsmlEJmv4DeTIeKc8W9-173" value="FK" style="shape=partialRectangle;top=0;left=0;bottom=0;fillColor=none;stokeWidth=1;dashed=1;align=left;verticalAlign=middle;spacingLeft=4;spacingRight=4;overflow=hidden;rotatable=0;points=[];portConstraint=eastwest;part=1;" vertex="1" connectable="0" parent="XIsmlEJmv4DeTIeKc8W9-172">
          <mxGeometry width="30" height="30" as="geometry" />
        </mxCell>
        <mxCell id="XIsmlEJmv4DeTIeKc8W9-174" value="order_date       date" style="shape=partialRectangle;fillColor=none;align=left;verticalAlign=middle;strokeColor=none;spacingLeft=34;rotatable=0;points=[[0,0.5],[1,0.5]];portConstraint=eastwest;dropTarget=0;" vertex="1" parent="XIsmlEJmv4DeTIeKc8W9-167">
          <mxGeometry y="116" width="160" height="30" as="geometry" />
        </mxCell>
        <mxCell id="XIsmlEJmv4DeTIeKc8W9-175" value="" style="shape=partialRectangle;top=0;left=0;bottom=0;fillColor=none;stokeWidth=1;dashed=1;align=left;verticalAlign=middle;spacingLeft=4;spacingRight=4;overflow=hidden;rotatable=0;points=[];portConstraint=eastwest;part=1;" vertex="1" connectable="0" parent="XIsmlEJmv4DeTIeKc8W9-174">
          <mxGeometry width="30" height="30" as="geometry" />
        </mxCell>
        <mxCell id="XIsmlEJmv4DeTIeKc8W9-178" value="oder_status     number" style="shape=partialRectangle;fillColor=none;align=left;verticalAlign=middle;strokeColor=none;spacingLeft=34;rotatable=0;points=[[0,0.5],[1,0.5]];portConstraint=eastwest;dropTarget=0;" vertex="1" parent="XIsmlEJmv4DeTIeKc8W9-167">
          <mxGeometry y="146" width="160" height="30" as="geometry" />
        </mxCell>
        <mxCell id="XIsmlEJmv4DeTIeKc8W9-179" value="FK" style="shape=partialRectangle;top=0;left=0;bottom=0;fillColor=none;stokeWidth=1;dashed=1;align=left;verticalAlign=middle;spacingLeft=4;spacingRight=4;overflow=hidden;rotatable=0;points=[];portConstraint=eastwest;part=1;" vertex="1" connectable="0" parent="XIsmlEJmv4DeTIeKc8W9-178">
          <mxGeometry width="30" height="30" as="geometry" />
        </mxCell>
        <mxCell id="XIsmlEJmv4DeTIeKc8W9-188" value="" style="edgeStyle=entityRelationEdgeStyle;fontSize=12;html=1;endArrow=ERzeroToMany;endFill=1;rounded=0;exitX=0;exitY=0.5;exitDx=0;exitDy=0;entryX=1;entryY=0.5;entryDx=0;entryDy=0;fillColor=#f8cecc;strokeColor=#b85450;strokeWidth=3;" edge="1" parent="WIyWlLk6GJQsqaUBKTNV-1" source="XIsmlEJmv4DeTIeKc8W9-85" target="XIsmlEJmv4DeTIeKc8W9-170">
          <mxGeometry width="100" height="100" relative="1" as="geometry">
            <mxPoint x="680" y="146" as="sourcePoint" />
            <mxPoint x="440" y="450" as="targetPoint" />
            <Array as="points">
              <mxPoint x="730" y="254" />
              <mxPoint x="720" y="354" />
              <mxPoint x="290" y="100" />
              <mxPoint x="790" y="424" />
              <mxPoint x="500" y="493" />
              <mxPoint x="730" y="444" />
              <mxPoint x="980" y="503" />
              <mxPoint x="740" y="444" />
              <mxPoint x="130" y="573" />
              <mxPoint x="660" y="513" />
            </Array>
          </mxGeometry>
        </mxCell>
        <mxCell id="XIsmlEJmv4DeTIeKc8W9-190" value="orders_status" style="swimlane;fontStyle=2;align=center;verticalAlign=top;childLayout=stackLayout;horizontal=1;startSize=26;horizontalStack=0;resizeParent=1;resizeLast=0;collapsible=1;marginBottom=0;rounded=0;shadow=0;strokeWidth=1;" vertex="1" parent="WIyWlLk6GJQsqaUBKTNV-1">
          <mxGeometry x="130" y="-160" width="160" height="90" as="geometry">
            <mxRectangle x="220" y="60" width="160" height="26" as="alternateBounds" />
          </mxGeometry>
        </mxCell>
        <mxCell id="XIsmlEJmv4DeTIeKc8W9-191" value="id                 number" style="shape=partialRectangle;fillColor=none;align=left;verticalAlign=middle;strokeColor=none;spacingLeft=34;rotatable=0;points=[[0,0.5],[1,0.5]];portConstraint=eastwest;dropTarget=0;" vertex="1" parent="XIsmlEJmv4DeTIeKc8W9-190">
          <mxGeometry y="26" width="160" height="30" as="geometry" />
        </mxCell>
        <mxCell id="XIsmlEJmv4DeTIeKc8W9-192" value="PK" style="shape=partialRectangle;top=0;left=0;bottom=0;fillColor=none;stokeWidth=1;dashed=1;align=left;verticalAlign=middle;spacingLeft=4;spacingRight=4;overflow=hidden;rotatable=0;points=[];portConstraint=eastwest;part=1;" vertex="1" connectable="0" parent="XIsmlEJmv4DeTIeKc8W9-191">
          <mxGeometry width="30" height="30" as="geometry" />
        </mxCell>
        <mxCell id="XIsmlEJmv4DeTIeKc8W9-199" value="oder_status     name" style="shape=partialRectangle;fillColor=none;align=left;verticalAlign=middle;strokeColor=none;spacingLeft=34;rotatable=0;points=[[0,0.5],[1,0.5]];portConstraint=eastwest;dropTarget=0;" vertex="1" parent="XIsmlEJmv4DeTIeKc8W9-190">
          <mxGeometry y="56" width="160" height="30" as="geometry" />
        </mxCell>
        <mxCell id="XIsmlEJmv4DeTIeKc8W9-200" value="" style="shape=partialRectangle;top=0;left=0;bottom=0;fillColor=none;stokeWidth=1;dashed=1;align=left;verticalAlign=middle;spacingLeft=4;spacingRight=4;overflow=hidden;rotatable=0;points=[];portConstraint=eastwest;part=1;" vertex="1" connectable="0" parent="XIsmlEJmv4DeTIeKc8W9-199">
          <mxGeometry width="30" height="30" as="geometry" />
        </mxCell>
        <mxCell id="XIsmlEJmv4DeTIeKc8W9-201" value="delivery" style="swimlane;fontStyle=2;align=center;verticalAlign=top;childLayout=stackLayout;horizontal=1;startSize=26;horizontalStack=0;resizeParent=1;resizeLast=0;collapsible=1;marginBottom=0;rounded=0;shadow=0;strokeWidth=1;" vertex="1" parent="WIyWlLk6GJQsqaUBKTNV-1">
          <mxGeometry x="120" y="170" width="180" height="150" as="geometry">
            <mxRectangle x="220" y="60" width="160" height="26" as="alternateBounds" />
          </mxGeometry>
        </mxCell>
        <mxCell id="XIsmlEJmv4DeTIeKc8W9-202" value="id                 number" style="shape=partialRectangle;fillColor=none;align=left;verticalAlign=middle;strokeColor=none;spacingLeft=34;rotatable=0;points=[[0,0.5],[1,0.5]];portConstraint=eastwest;dropTarget=0;" vertex="1" parent="XIsmlEJmv4DeTIeKc8W9-201">
          <mxGeometry y="26" width="180" height="30" as="geometry" />
        </mxCell>
        <mxCell id="XIsmlEJmv4DeTIeKc8W9-203" value="PK" style="shape=partialRectangle;top=0;left=0;bottom=0;fillColor=none;stokeWidth=1;dashed=1;align=left;verticalAlign=middle;spacingLeft=4;spacingRight=4;overflow=hidden;rotatable=0;points=[];portConstraint=eastwest;part=1;" vertex="1" connectable="0" parent="XIsmlEJmv4DeTIeKc8W9-202">
          <mxGeometry width="30" height="30" as="geometry" />
        </mxCell>
        <mxCell id="XIsmlEJmv4DeTIeKc8W9-204" value="address       varchar" style="shape=partialRectangle;fillColor=none;align=left;verticalAlign=middle;strokeColor=none;spacingLeft=34;rotatable=0;points=[[0,0.5],[1,0.5]];portConstraint=eastwest;dropTarget=0;" vertex="1" parent="XIsmlEJmv4DeTIeKc8W9-201">
          <mxGeometry y="56" width="180" height="30" as="geometry" />
        </mxCell>
        <mxCell id="XIsmlEJmv4DeTIeKc8W9-205" value="FK" style="shape=partialRectangle;top=0;left=0;bottom=0;fillColor=none;stokeWidth=1;dashed=1;align=left;verticalAlign=middle;spacingLeft=4;spacingRight=4;overflow=hidden;rotatable=0;points=[];portConstraint=eastwest;part=1;" vertex="1" connectable="0" parent="XIsmlEJmv4DeTIeKc8W9-204">
          <mxGeometry width="30" height="30" as="geometry" />
        </mxCell>
        <mxCell id="XIsmlEJmv4DeTIeKc8W9-206" value="post              number" style="shape=partialRectangle;fillColor=none;align=left;verticalAlign=middle;strokeColor=none;spacingLeft=34;rotatable=0;points=[[0,0.5],[1,0.5]];portConstraint=eastwest;dropTarget=0;" vertex="1" parent="XIsmlEJmv4DeTIeKc8W9-201">
          <mxGeometry y="86" width="180" height="30" as="geometry" />
        </mxCell>
        <mxCell id="XIsmlEJmv4DeTIeKc8W9-207" value="FK" style="shape=partialRectangle;top=0;left=0;bottom=0;fillColor=none;stokeWidth=1;dashed=1;align=left;verticalAlign=middle;spacingLeft=4;spacingRight=4;overflow=hidden;rotatable=0;points=[];portConstraint=eastwest;part=1;" vertex="1" connectable="0" parent="XIsmlEJmv4DeTIeKc8W9-206">
          <mxGeometry width="30" height="30" as="geometry" />
        </mxCell>
        <mxCell id="XIsmlEJmv4DeTIeKc8W9-210" value="delivery_status    number" style="shape=partialRectangle;fillColor=none;align=left;verticalAlign=middle;strokeColor=none;spacingLeft=34;rotatable=0;points=[[0,0.5],[1,0.5]];portConstraint=eastwest;dropTarget=0;" vertex="1" parent="XIsmlEJmv4DeTIeKc8W9-201">
          <mxGeometry y="116" width="180" height="30" as="geometry" />
        </mxCell>
        <mxCell id="XIsmlEJmv4DeTIeKc8W9-211" value="" style="shape=partialRectangle;top=0;left=0;bottom=0;fillColor=none;stokeWidth=1;dashed=1;align=left;verticalAlign=middle;spacingLeft=4;spacingRight=4;overflow=hidden;rotatable=0;points=[];portConstraint=eastwest;part=1;" vertex="1" connectable="0" parent="XIsmlEJmv4DeTIeKc8W9-210">
          <mxGeometry width="30" height="30" as="geometry" />
        </mxCell>
        <mxCell id="XIsmlEJmv4DeTIeKc8W9-214" value="" style="edgeStyle=entityRelationEdgeStyle;fontSize=12;html=1;endArrow=ERzeroToMany;endFill=1;rounded=0;exitX=1;exitY=0.5;exitDx=0;exitDy=0;fontColor=#30FFF8;fillColor=#dae8fc;strokeColor=#6c8ebf;strokeWidth=5;" edge="1" parent="WIyWlLk6GJQsqaUBKTNV-1" source="XIsmlEJmv4DeTIeKc8W9-191" target="XIsmlEJmv4DeTIeKc8W9-178">
          <mxGeometry width="100" height="100" relative="1" as="geometry">
            <mxPoint x="710" y="-460" as="sourcePoint" />
            <mxPoint x="710" y="39" as="targetPoint" />
            <Array as="points">
              <mxPoint x="770" y="-90" />
            </Array>
          </mxGeometry>
        </mxCell>
        <mxCell id="XIsmlEJmv4DeTIeKc8W9-216" value="" style="edgeStyle=entityRelationEdgeStyle;fontSize=12;html=1;endArrow=ERzeroToMany;endFill=1;rounded=0;entryX=1;entryY=0.5;entryDx=0;entryDy=0;fillColor=#d5e8d4;strokeColor=#82b366;strokeWidth=4;" edge="1" parent="WIyWlLk6GJQsqaUBKTNV-1" source="XIsmlEJmv4DeTIeKc8W9-202" target="XIsmlEJmv4DeTIeKc8W9-172">
          <mxGeometry width="100" height="100" relative="1" as="geometry">
            <mxPoint x="50" y="250" as="sourcePoint" />
            <mxPoint y="120" as="targetPoint" />
            <Array as="points">
              <mxPoint x="80" y="160" />
            </Array>
          </mxGeometry>
        </mxCell>
        <mxCell id="XIsmlEJmv4DeTIeKc8W9-217" value="delivery_status" style="swimlane;fontStyle=2;align=center;verticalAlign=top;childLayout=stackLayout;horizontal=1;startSize=26;horizontalStack=0;resizeParent=1;resizeLast=0;collapsible=1;marginBottom=0;rounded=0;shadow=0;strokeWidth=1;" vertex="1" parent="WIyWlLk6GJQsqaUBKTNV-1">
          <mxGeometry x="180" y="370" width="160" height="90" as="geometry">
            <mxRectangle x="220" y="60" width="160" height="26" as="alternateBounds" />
          </mxGeometry>
        </mxCell>
        <mxCell id="XIsmlEJmv4DeTIeKc8W9-218" value="id                 number" style="shape=partialRectangle;fillColor=none;align=left;verticalAlign=middle;strokeColor=none;spacingLeft=34;rotatable=0;points=[[0,0.5],[1,0.5]];portConstraint=eastwest;dropTarget=0;" vertex="1" parent="XIsmlEJmv4DeTIeKc8W9-217">
          <mxGeometry y="26" width="160" height="30" as="geometry" />
        </mxCell>
        <mxCell id="XIsmlEJmv4DeTIeKc8W9-219" value="PK" style="shape=partialRectangle;top=0;left=0;bottom=0;fillColor=none;stokeWidth=1;dashed=1;align=left;verticalAlign=middle;spacingLeft=4;spacingRight=4;overflow=hidden;rotatable=0;points=[];portConstraint=eastwest;part=1;" vertex="1" connectable="0" parent="XIsmlEJmv4DeTIeKc8W9-218">
          <mxGeometry width="30" height="30" as="geometry" />
        </mxCell>
        <mxCell id="XIsmlEJmv4DeTIeKc8W9-220" value="oder_status     name" style="shape=partialRectangle;fillColor=none;align=left;verticalAlign=middle;strokeColor=none;spacingLeft=34;rotatable=0;points=[[0,0.5],[1,0.5]];portConstraint=eastwest;dropTarget=0;" vertex="1" parent="XIsmlEJmv4DeTIeKc8W9-217">
          <mxGeometry y="56" width="160" height="30" as="geometry" />
        </mxCell>
        <mxCell id="XIsmlEJmv4DeTIeKc8W9-221" value="" style="shape=partialRectangle;top=0;left=0;bottom=0;fillColor=none;stokeWidth=1;dashed=1;align=left;verticalAlign=middle;spacingLeft=4;spacingRight=4;overflow=hidden;rotatable=0;points=[];portConstraint=eastwest;part=1;" vertex="1" connectable="0" parent="XIsmlEJmv4DeTIeKc8W9-220">
          <mxGeometry width="30" height="30" as="geometry" />
        </mxCell>
        <mxCell id="XIsmlEJmv4DeTIeKc8W9-222" value="" style="edgeStyle=entityRelationEdgeStyle;fontSize=12;html=1;endArrow=ERzeroToMany;endFill=1;rounded=0;entryX=1.002;entryY=0.791;entryDx=0;entryDy=0;entryPerimeter=0;fillColor=#ffe6cc;strokeColor=#d79b00;strokeWidth=3;" edge="1" parent="WIyWlLk6GJQsqaUBKTNV-1" target="XIsmlEJmv4DeTIeKc8W9-210">
          <mxGeometry width="100" height="100" relative="1" as="geometry">
            <mxPoint x="340" y="410" as="sourcePoint" />
            <mxPoint x="570" y="130" as="targetPoint" />
          </mxGeometry>
        </mxCell>
      </root>
    </mxGraphModel>
  </diagram>
</mxfile>
